<?xml version="1.0" encoding="UTF-8" standalone="no"?>
<!-- Created with Inkscape (http://www.inkscape.org/) -->

<svg
   width="150mm"
   height="300mm"
   viewBox="0 0 150 300"
   version="1.1"
   id="svg5"
   inkscape:version="1.2 (dc2aedaf03, 2022-05-15)"
   sodipodi:docname="curling bar.svg"
   xml:space="preserve"
   inkscape:export-filename="curling bar.png"
   inkscape:export-xdpi="169.33333"
   inkscape:export-ydpi="169.33333"
   xmlns:inkscape="http://www.inkscape.org/namespaces/inkscape"
   xmlns:sodipodi="http://sodipodi.sourceforge.net/DTD/sodipodi-0.dtd"
   xmlns="http://www.w3.org/2000/svg"
   xmlns:svg="http://www.w3.org/2000/svg"><sodipodi:namedview
     id="namedview7"
     pagecolor="#505050"
     bordercolor="#eeeeee"
     borderopacity="1"
     inkscape:showpageshadow="0"
     inkscape:pageopacity="0"
     inkscape:pagecheckerboard="0"
     inkscape:deskcolor="#505050"
     inkscape:document-units="mm"
     showgrid="true"
     inkscape:zoom="2.2066176"
     inkscape:cx="393.36222"
     inkscape:cy="326.29125"
     inkscape:window-width="3840"
     inkscape:window-height="2066"
     inkscape:window-x="3829"
     inkscape:window-y="-11"
     inkscape:window-maximized="1"
     inkscape:current-layer="layer1"><inkscape:grid
       type="xygrid"
       id="grid810"
       units="mm"
       spacingx="0.99999999"
       spacingy="0.99999999"
       visible="false"
       originx="0"
       originy="0" /></sodipodi:namedview><defs
     id="defs2"><inkscape:path-effect
       effect="powerclip"
       id="path-effect388"
       is_visible="true"
       lpeversion="1"
       inverse="true"
       flatten="false"
       hide_clip="false"
       message="Use fill-rule evenodd on &lt;b&gt;fill and stroke&lt;/b&gt; dialog if no flatten result after convert clip to paths." /><inkscape:path-effect
       effect="powerclip"
       id="path-effect380"
       is_visible="true"
       lpeversion="1"
       inverse="true"
       flatten="false"
       hide_clip="false"
       message="Use fill-rule evenodd on &lt;b&gt;fill and stroke&lt;/b&gt; dialog if no flatten result after convert clip to paths." /><inkscape:path-effect
       effect="powerclip"
       id="path-effect370"
       is_visible="true"
       lpeversion="1"
       inverse="true"
       flatten="false"
       hide_clip="false"
       message="Use fill-rule evenodd on &lt;b&gt;fill and stroke&lt;/b&gt; dialog if no flatten result after convert clip to paths." /><inkscape:path-effect
       effect="powerclip"
       id="path-effect354"
       is_visible="true"
       lpeversion="1"
       inverse="true"
       flatten="false"
       hide_clip="false"
       message="Use fill-rule evenodd on &lt;b&gt;fill and stroke&lt;/b&gt; dialog if no flatten result after convert clip to paths." /><inkscape:path-effect
       effect="powerclip"
       id="path-effect240"
       is_visible="true"
       lpeversion="1"
       inverse="true"
       flatten="false"
       hide_clip="false"
       message="Use fill-rule evenodd on &lt;b&gt;fill and stroke&lt;/b&gt; dialog if no flatten result after convert clip to paths." /><inkscape:path-effect
       effect="powerclip"
       id="path-effect1207"
       is_visible="true"
       lpeversion="1"
       inverse="true"
       flatten="false"
       hide_clip="false"
       message="Use fill-rule evenodd on &lt;b&gt;fill and stroke&lt;/b&gt; dialog if no flatten result after convert clip to paths." /><inkscape:path-effect
       effect="powerclip"
       id="path-effect1045"
       is_visible="true"
       lpeversion="1"
       inverse="true"
       flatten="false"
       hide_clip="false"
       message="Use fill-rule evenodd on &lt;b&gt;fill and stroke&lt;/b&gt; dialog if no flatten result after convert clip to paths." /><inkscape:path-effect
       effect="powerclip"
       id="path-effect754"
       is_visible="true"
       lpeversion="1"
       inverse="true"
       flatten="false"
       hide_clip="false"
       message="Use fill-rule evenodd on &lt;b&gt;fill and stroke&lt;/b&gt; dialog if no flatten result after convert clip to paths." /><clipPath
       clipPathUnits="userSpaceOnUse"
       id="clipPath740"><g
         id="g752"
         style="display:block"><path
           style="fill:#000000;stroke-width:0.264583"
           d="M 36.5,94.3999 H 55 v 17 h 16.5 v 18 H 55 v 16.5 H 36.5 v -16.5 H 20 v -18 h 16.5 z"
           id="path742"
           sodipodi:nodetypes="ccccccccccccc"
           inkscape:label="dpad" /><circle
           style="fill:#000000;stroke-width:0.258632"
           id="circle744"
           inkscape:label="btn west"
           r="10"
           cy="119.39989"
           cx="135" /><circle
           style="fill:#000000;stroke-width:0.258632"
           id="circle746"
           inkscape:label="btn east"
           r="10"
           cy="119.39989"
           cx="175" /><circle
           style="fill:#000000;stroke-width:0.258632"
           id="circle748"
           inkscape:label="btn south"
           r="10"
           cy="139.3999"
           cx="155" /><circle
           style="fill:#000000;stroke-width:0.258632"
           id="circle750"
           cx="155"
           cy="99.399895"
           inkscape:label="btn north"
           r="10" /></g></clipPath><clipPath
       clipPathUnits="userSpaceOnUse"
       id="clipPath1041"><path
         style="display:block;opacity:1;fill:#ffffff;stroke-width:0.264583"
         d="M 62.499999,42.5 H 137.5 c 0,0 -0.38931,-21 -9.5,-21 H 71.999999 c -9.687928,0 -9.5,21 -9.5,21 z"
         id="path1043"
         sodipodi:nodetypes="ccssc" /></clipPath><clipPath
       clipPathUnits="userSpaceOnUse"
       id="clipPath1203"><circle
         style="display:none;opacity:0.82;fill:#ffffff;stroke-width:0.26438"
         id="circle1205"
         cx="100"
         cy="100"
         r="83.5" /></clipPath><clipPath
       clipPathUnits="userSpaceOnUse"
       id="clipPath376"><circle
         style="display:none;fill:#000000;stroke-width:0.207516"
         id="circle378"
         cx="100"
         cy="100"
         r="66.666672"
         d="M 166.66667,100 A 66.666672,66.666672 0 0 1 100,166.66667 66.666672,66.666672 0 0 1 33.333328,100 66.666672,66.666672 0 0 1 100,33.333328 66.666672,66.666672 0 0 1 166.66667,100 Z" /><path
         id="lpe_path-effect380"
         style="display:inline;fill:#000000;stroke-width:0.207516"
         class="powerclip"
         d="M -5,-5 H 205 V 205 H -5 Z M 166.66667,100 A 66.666672,66.666672 0 0 0 100,33.333328 66.666672,66.666672 0 0 0 33.333328,100 66.666672,66.666672 0 0 0 100,166.66667 66.666672,66.666672 0 0 0 166.66667,100 Z" /></clipPath><clipPath
       clipPathUnits="userSpaceOnUse"
       id="clipPath384"><circle
         style="display:none;fill:#ffffff;stroke-width:0.0330729"
         id="circle386"
         cx="75"
         cy="75"
         r="6.25"
         d="M 81.25,75 A 6.25,6.25 0 0 1 75,81.25 6.25,6.25 0 0 1 68.75,75 6.25,6.25 0 0 1 75,68.75 6.25,6.25 0 0 1 81.25,75 Z" /><path
         id="lpe_path-effect388"
         style="display:inline;fill:#ffffff;stroke-width:0.0330729"
         class="powerclip"
         d="m 45,45 h 60 v 60 H 45 Z M 81.25,75 A 6.25,6.25 0 0 0 75,68.75 6.25,6.25 0 0 0 68.75,75 6.25,6.25 0 0 0 75,81.25 6.25,6.25 0 0 0 81.25,75 Z" /></clipPath></defs><g
     inkscape:label="rock"
     inkscape:groupmode="layer"
     id="layer1"><path
       style="fill:#ffffff;stroke-width:0.264583"
       id="path180"
       clip-path="url(#clipPath376)"
       transform="scale(0.74999999)"
       inkscape:path-effect="#path-effect380"
       sodipodi:type="arc"
       sodipodi:cx="100"
       sodipodi:cy="100"
       sodipodi:rx="100"
       sodipodi:ry="100"
       d="M 200,100 A 100,100 0 0 1 100,200 100,100 0 0 1 0,100 100,100 0 0 1 100,0 100,100 0 0 1 200,100 Z" /><path
       style="display:inline;fill:#ffffff;stroke-width:0.132291"
       id="path293"
       clip-path="url(#clipPath384)"
       inkscape:path-effect="#path-effect388"
       sodipodi:type="arc"
       sodipodi:cx="75"
       sodipodi:cy="75"
       sodipodi:rx="25"
       sodipodi:ry="25"
       d="M 100,75 A 25,25 0 0 1 75,100 25,25 0 0 1 50,75 25,25 0 0 1 75,50 25,25 0 0 1 100,75 Z" /></g></svg>
