<?xml version="1.0" encoding="UTF-8" standalone="no"?>
<!-- Created with Inkscape (http://www.inkscape.org/) -->

<svg
   width="200mm"
   height="200mm"
   viewBox="0 0 200 200"
   version="1.1"
   id="svg5"
   inkscape:version="1.2 (dc2aedaf03, 2022-05-15)"
   sodipodi:docname="quit.svg"
   xml:space="preserve"
   xmlns:inkscape="http://www.inkscape.org/namespaces/inkscape"
   xmlns:sodipodi="http://sodipodi.sourceforge.net/DTD/sodipodi-0.dtd"
   xmlns="http://www.w3.org/2000/svg"
   xmlns:svg="http://www.w3.org/2000/svg"><sodipodi:namedview
     id="namedview7"
     pagecolor="#505050"
     bordercolor="#eeeeee"
     borderopacity="1"
     inkscape:showpageshadow="0"
     inkscape:pageopacity="0"
     inkscape:pagecheckerboard="0"
     inkscape:deskcolor="#505050"
     inkscape:document-units="mm"
     showgrid="true"
     inkscape:zoom="1.1033088"
     inkscape:cx="585.05833"
     inkscape:cy="335.35489"
     inkscape:window-width="3840"
     inkscape:window-height="2066"
     inkscape:window-x="3829"
     inkscape:window-y="-11"
     inkscape:window-maximized="1"
     inkscape:current-layer="layer1"><inkscape:grid
       type="xygrid"
       id="grid810"
       units="mm"
       spacingx="5"
       spacingy="5"
       visible="true" /></sodipodi:namedview><defs
     id="defs2"><inkscape:path-effect
       effect="powerclip"
       id="path-effect1207"
       is_visible="true"
       lpeversion="1"
       inverse="true"
       flatten="false"
       hide_clip="false"
       message="Use fill-rule evenodd on &lt;b&gt;fill and stroke&lt;/b&gt; dialog if no flatten result after convert clip to paths." /><inkscape:path-effect
       effect="powerclip"
       id="path-effect1045"
       is_visible="true"
       lpeversion="1"
       inverse="true"
       flatten="false"
       hide_clip="false"
       message="Use fill-rule evenodd on &lt;b&gt;fill and stroke&lt;/b&gt; dialog if no flatten result after convert clip to paths." /><inkscape:path-effect
       effect="powerclip"
       id="path-effect754"
       is_visible="true"
       lpeversion="1"
       inverse="true"
       flatten="false"
       hide_clip="false"
       message="Use fill-rule evenodd on &lt;b&gt;fill and stroke&lt;/b&gt; dialog if no flatten result after convert clip to paths." /><clipPath
       clipPathUnits="userSpaceOnUse"
       id="clipPath740"><g
         id="g752"
         style="display:block"><path
           style="fill:#000000;stroke-width:0.264583"
           d="M 36.5,94.3999 H 55 v 17 h 16.5 v 18 H 55 v 16.5 H 36.5 v -16.5 H 20 v -18 h 16.5 z"
           id="path742"
           sodipodi:nodetypes="ccccccccccccc"
           inkscape:label="dpad" /><circle
           style="fill:#000000;stroke-width:0.258632"
           id="circle744"
           inkscape:label="btn west"
           r="10"
           cy="119.39989"
           cx="135" /><circle
           style="fill:#000000;stroke-width:0.258632"
           id="circle746"
           inkscape:label="btn east"
           r="10"
           cy="119.39989"
           cx="175" /><circle
           style="fill:#000000;stroke-width:0.258632"
           id="circle748"
           inkscape:label="btn south"
           r="10"
           cy="139.3999"
           cx="155" /><circle
           style="fill:#000000;stroke-width:0.258632"
           id="circle750"
           cx="155"
           cy="99.399895"
           inkscape:label="btn north"
           r="10" /></g></clipPath><clipPath
       clipPathUnits="userSpaceOnUse"
       id="clipPath1041"><path
         style="display:block;opacity:1;fill:#ffffff;stroke-width:0.264583"
         d="M 62.499999,42.5 H 137.5 c 0,0 -0.38931,-21 -9.5,-21 H 71.999999 c -9.687928,0 -9.5,21 -9.5,21 z"
         id="path1043"
         sodipodi:nodetypes="ccssc" /></clipPath><clipPath
       clipPathUnits="userSpaceOnUse"
       id="clipPath1203"><circle
         style="display:none;opacity:0.82;fill:#ffffff;stroke-width:0.26438"
         id="circle1205"
         cx="100"
         cy="100"
         r="83.5" /></clipPath></defs><g
     inkscape:label="rock"
     inkscape:groupmode="layer"
     id="layer1"><path
       style="fill:#ffffff;stroke-width:0.264583"
       d="M 0,75.000002 0,25 C 0,0 0,0 25,0 h 150 c 25,0 25,0 25,25 v 150 c 0,25 0,25 -25,25 H 25 C 0,200 0,200 0,175 l 0,-50 h 25 l 0,45 c 0,5 2e-6,5 5,5 h 140 c 5,0 5,0 5,-5 V 30 c 0,-5 0,-5 -5,-5 H 30 c -5,0 -5,0 -5,5 l 0,45 z"
       id="path874"
       sodipodi:nodetypes="cssssssssccssssscsscc" /><path
       style="fill:#ffffff;stroke-width:0.264583"
       d="m 0,85 95,0 -15,-15 20,-20 50,50 -50,50 -20,-20 15,-15 -95,0 z"
       id="path876"
       sodipodi:nodetypes="cccccccccc" /></g></svg>
