<?xml version="1.0" encoding="UTF-8" standalone="no"?>
<!-- Created with Inkscape (http://www.inkscape.org/) -->

<svg
   width="200mm"
   height="200mm"
   viewBox="0 0 200 200"
   version="1.1"
   id="svg5"
   inkscape:version="1.2 (dc2aedaf03, 2022-05-15)"
   sodipodi:docname="rock speed.svg"
   xml:space="preserve"
   xmlns:inkscape="http://www.inkscape.org/namespaces/inkscape"
   xmlns:sodipodi="http://sodipodi.sourceforge.net/DTD/sodipodi-0.dtd"
   xmlns="http://www.w3.org/2000/svg"
   xmlns:svg="http://www.w3.org/2000/svg"><sodipodi:namedview
     id="namedview7"
     pagecolor="#505050"
     bordercolor="#eeeeee"
     borderopacity="1"
     inkscape:showpageshadow="0"
     inkscape:pageopacity="0"
     inkscape:pagecheckerboard="0"
     inkscape:deskcolor="#505050"
     inkscape:document-units="mm"
     showgrid="true"
     inkscape:zoom="0.78015713"
     inkscape:cx="754.33521"
     inkscape:cy="217.90482"
     inkscape:window-width="3840"
     inkscape:window-height="2066"
     inkscape:window-x="3829"
     inkscape:window-y="-11"
     inkscape:window-maximized="1"
     inkscape:current-layer="layer1"><inkscape:grid
       type="xygrid"
       id="grid810"
       units="mm"
       spacingx="0.99999999"
       spacingy="0.99999999"
       visible="false" /></sodipodi:namedview><defs
     id="defs2"><inkscape:path-effect
       effect="powerclip"
       id="path-effect1207"
       is_visible="true"
       lpeversion="1"
       inverse="true"
       flatten="false"
       hide_clip="false"
       message="Use fill-rule evenodd on &lt;b&gt;fill and stroke&lt;/b&gt; dialog if no flatten result after convert clip to paths." /><inkscape:path-effect
       effect="powerclip"
       id="path-effect1045"
       is_visible="true"
       lpeversion="1"
       inverse="true"
       flatten="false"
       hide_clip="false"
       message="Use fill-rule evenodd on &lt;b&gt;fill and stroke&lt;/b&gt; dialog if no flatten result after convert clip to paths." /><inkscape:path-effect
       effect="powerclip"
       id="path-effect754"
       is_visible="true"
       lpeversion="1"
       inverse="true"
       flatten="false"
       hide_clip="false"
       message="Use fill-rule evenodd on &lt;b&gt;fill and stroke&lt;/b&gt; dialog if no flatten result after convert clip to paths." /><clipPath
       clipPathUnits="userSpaceOnUse"
       id="clipPath740"><g
         id="g752"
         style="display:block"><path
           style="fill:#000000;stroke-width:0.264583"
           d="M 36.5,94.3999 H 55 v 17 h 16.5 v 18 H 55 v 16.5 H 36.5 v -16.5 H 20 v -18 h 16.5 z"
           id="path742"
           sodipodi:nodetypes="ccccccccccccc"
           inkscape:label="dpad" /><circle
           style="fill:#000000;stroke-width:0.258632"
           id="circle744"
           inkscape:label="btn west"
           r="10"
           cy="119.39989"
           cx="135" /><circle
           style="fill:#000000;stroke-width:0.258632"
           id="circle746"
           inkscape:label="btn east"
           r="10"
           cy="119.39989"
           cx="175" /><circle
           style="fill:#000000;stroke-width:0.258632"
           id="circle748"
           inkscape:label="btn south"
           r="10"
           cy="139.3999"
           cx="155" /><circle
           style="fill:#000000;stroke-width:0.258632"
           id="circle750"
           cx="155"
           cy="99.399895"
           inkscape:label="btn north"
           r="10" /></g></clipPath><clipPath
       clipPathUnits="userSpaceOnUse"
       id="clipPath1041"><path
         style="display:block;opacity:1;fill:#ffffff;stroke-width:0.264583"
         d="M 62.499999,42.5 H 137.5 c 0,0 -0.38931,-21 -9.5,-21 H 71.999999 c -9.687928,0 -9.5,21 -9.5,21 z"
         id="path1043"
         sodipodi:nodetypes="ccssc" /></clipPath><clipPath
       clipPathUnits="userSpaceOnUse"
       id="clipPath1203"><circle
         style="display:none;opacity:0.82;fill:#ffffff;stroke-width:0.26438"
         id="circle1205"
         cx="100"
         cy="100"
         r="83.5" /></clipPath></defs><g
     inkscape:label="rock"
     inkscape:groupmode="layer"
     id="layer1"><path
       style="opacity:1;fill:#ffffff;stroke-width:0.178594"
       d="m 65.049997,103.35 c 0,-18.322491 9.797037,-20.925001 24.3,-20.925001 0,-5.03736 2.346778,-7.425 12.150003,-7.425 0,-4.34991 0.24844,-7.589214 0.24844,-21.059738 0,-5.087197 5.89683,-12.015262 12.29788,-12.015262 H 162.925 c 7.30133,0 7.29261,13.5 0,13.5 h -44.77938 c -1.73644,0 -3.14562,0.490712 -3.14562,2.614556 0,4.298933 0,16.960444 0,16.960444 0,0 46.3745,0 52.03543,0 4.17785,0 8.51937,2.9353 8.71457,7.425 12.33636,0 24.3,2.46492 24.3,20.925001 -32.60443,0 -135.000003,0 -135.000003,0 z"
       id="path259"
       sodipodi:nodetypes="cccsssssscsccc" /><path
       style="opacity:1;fill:#ffffff;stroke-width:0.178594"
       d="m 65.049997,119.55 c 0,15.51224 7.108034,23.625 16.875,23.625 9.766968,0 94.140223,0 101.250003,0 11.77782,0 16.875,-7.10733 16.875,-23.625"
       id="path357"
       sodipodi:nodetypes="cssc" /></g><path
     style="fill:#ffffff;stroke-width:0.264583"
     d="M 54.999998,119 -1.1500003e-6,117 v -4 L 54.999998,111 Z"
     id="path812"
     sodipodi:nodetypes="ccccc" /><path
     style="fill:#ffffff;stroke-width:0.264583"
     d="M 54.999998,139 -1.1500003e-6,137 v -4 L 54.999997,131 Z"
     id="path814"
     sodipodi:nodetypes="ccccc" /><path
     style="fill:#ffffff;stroke-width:0.264583"
     d="M 54.999998,99 -1.1500003e-6,97 V 92.999999 L 54.999999,90.999998 Z"
     id="path816"
     sodipodi:nodetypes="ccccc" /></svg>
