<?xml version="1.0" encoding="UTF-8" standalone="no"?>
<!-- Created with Inkscape (http://www.inkscape.org/) -->

<svg
   width="200mm"
   height="200mm"
   viewBox="0 0 200 200"
   version="1.1"
   id="svg5"
   inkscape:version="1.2 (dc2aedaf03, 2022-05-15)"
   sodipodi:docname="volume 1.svg"
   xml:space="preserve"
   xmlns:inkscape="http://www.inkscape.org/namespaces/inkscape"
   xmlns:sodipodi="http://sodipodi.sourceforge.net/DTD/sodipodi-0.dtd"
   xmlns="http://www.w3.org/2000/svg"
   xmlns:svg="http://www.w3.org/2000/svg"><sodipodi:namedview
     id="namedview7"
     pagecolor="#505050"
     bordercolor="#eeeeee"
     borderopacity="1"
     inkscape:showpageshadow="0"
     inkscape:pageopacity="0"
     inkscape:pagecheckerboard="false"
     inkscape:deskcolor="#505050"
     inkscape:document-units="mm"
     showgrid="true"
     inkscape:zoom="1.1033088"
     inkscape:cx="275.08164"
     inkscape:cy="436.86771"
     inkscape:window-width="3840"
     inkscape:window-height="2066"
     inkscape:window-x="3829"
     inkscape:window-y="-11"
     inkscape:window-maximized="1"
     inkscape:current-layer="layer1"
     showborder="true"><inkscape:grid
       type="xygrid"
       id="grid381"
       units="mm"
       spacingx="0.5"
       spacingy="0.5"
       visible="false" /></sodipodi:namedview><defs
     id="defs2"><inkscape:path-effect
       effect="powerclip"
       id="path-effect691"
       is_visible="true"
       lpeversion="1"
       inverse="true"
       flatten="false"
       hide_clip="false"
       message="Use fill-rule evenodd on &lt;b&gt;fill and stroke&lt;/b&gt; dialog if no flatten result after convert clip to paths." /><inkscape:path-effect
       effect="powerclip"
       id="path-effect687"
       is_visible="true"
       lpeversion="1"
       inverse="true"
       flatten="false"
       hide_clip="false"
       message="Use fill-rule evenodd on &lt;b&gt;fill and stroke&lt;/b&gt; dialog if no flatten result after convert clip to paths." /><inkscape:path-effect
       effect="powerclip"
       id="path-effect1207"
       is_visible="true"
       lpeversion="1"
       inverse="true"
       flatten="false"
       hide_clip="false"
       message="Use fill-rule evenodd on &lt;b&gt;fill and stroke&lt;/b&gt; dialog if no flatten result after convert clip to paths." /><inkscape:path-effect
       effect="powerclip"
       id="path-effect1045"
       is_visible="true"
       lpeversion="1"
       inverse="true"
       flatten="false"
       hide_clip="false"
       message="Use fill-rule evenodd on &lt;b&gt;fill and stroke&lt;/b&gt; dialog if no flatten result after convert clip to paths." /><inkscape:path-effect
       effect="powerclip"
       id="path-effect754"
       is_visible="true"
       lpeversion="1"
       inverse="true"
       flatten="false"
       hide_clip="false"
       message="Use fill-rule evenodd on &lt;b&gt;fill and stroke&lt;/b&gt; dialog if no flatten result after convert clip to paths." /><clipPath
       clipPathUnits="userSpaceOnUse"
       id="clipPath740"><g
         id="g752"
         style="display:block"><path
           style="fill:#000000;stroke-width:0.264583"
           d="M 36.5,94.3999 H 55 v 17 h 16.5 v 18 H 55 v 16.5 H 36.5 v -16.5 H 20 v -18 h 16.5 z"
           id="path742"
           sodipodi:nodetypes="ccccccccccccc"
           inkscape:label="dpad" /><circle
           style="fill:#000000;stroke-width:0.258632"
           id="circle744"
           inkscape:label="btn west"
           r="10"
           cy="119.39989"
           cx="135" /><circle
           style="fill:#000000;stroke-width:0.258632"
           id="circle746"
           inkscape:label="btn east"
           r="10"
           cy="119.39989"
           cx="175" /><circle
           style="fill:#000000;stroke-width:0.258632"
           id="circle748"
           inkscape:label="btn south"
           r="10"
           cy="139.3999"
           cx="155" /><circle
           style="fill:#000000;stroke-width:0.258632"
           id="circle750"
           cx="155"
           cy="99.399895"
           inkscape:label="btn north"
           r="10" /></g></clipPath><clipPath
       clipPathUnits="userSpaceOnUse"
       id="clipPath1041"><path
         style="display:block;opacity:1;fill:#ffffff;stroke-width:0.264583"
         d="M 62.499999,42.5 H 137.5 c 0,0 -0.38931,-21 -9.5,-21 H 71.999999 c -9.687928,0 -9.5,21 -9.5,21 z"
         id="path1043"
         sodipodi:nodetypes="ccssc" /></clipPath><clipPath
       clipPathUnits="userSpaceOnUse"
       id="clipPath1203"><circle
         style="display:none;opacity:0.82;fill:#ffffff;stroke-width:0.26438"
         id="circle1205"
         cx="100"
         cy="100"
         r="83.5" /></clipPath><clipPath
       clipPathUnits="userSpaceOnUse"
       id="clipPath679"><path
         style="display:block;opacity:0.5;fill:#ffffff;stroke-width:0.264583"
         d="M 91.822447,88.939746 116.15582,62.232389 c 0,0 29.9292,-7.969816 30.26834,-7.969816 0.33914,0 23.5703,14.413495 23.5703,14.413495 l 10.08945,30.183558 -7.63067,32.303184 -20.94196,25.60515 -27.97914,9.15681 -25.689938,-10.76773 -12.97215,-28.7422 z"
         id="path681"
         inkscape:label="mouth" /></clipPath><clipPath
       clipPathUnits="userSpaceOnUse"
       id="clipPath683"><path
         style="display:block;opacity:0.5;fill:#ffffff;stroke-width:0.264583"
         d="M 91.822447,88.939746 116.15582,62.232389 c 0,0 29.9292,-7.969816 30.26834,-7.969816 0.33914,0 23.5703,14.413495 23.5703,14.413495 l 10.08945,30.183558 -7.63067,32.303184 -20.94196,25.60515 -27.97914,9.15681 -25.689938,-10.76773 -12.97215,-28.7422 z"
         id="path685"
         inkscape:label="mouth" /></clipPath></defs><g
     inkscape:label="main"
     inkscape:groupmode="layer"
     id="layer1"><path
       style="display:inline;opacity:1;fill:#ffffff;stroke-width:0.264583"
       d="M 87.5,32.5 C 72.5,42.5 40,65 40,65 H 2.5 C 0,65 0,65 0,100 c 0,35 0,35 2.5,35 H 40 c 5.805776,3.06056 32.5,22.5 47.5,32.5 5,0 5,2.5 5,-67.5 0,-70 0,-67.5 -5,-67.5 z"
       id="path386"
       sodipodi:nodetypes="ccczccczc" /><path
       style="display:inline;opacity:1;fill:#ffffff;stroke-width:0.264583"
       d="m 112.5,62.5 10,-10 c 0,0 17.5,17.596902 17.5,47.5 0,29.9031 -17.5,47.5 -17.5,47.5 l -10,-10 c 0,0 15,-12.17947 15,-37.5 0,-25.320533 -15,-37.5 -15,-37.5 z"
       id="path375"
       sodipodi:nodetypes="cczcczc" /><path
       style="display:none;opacity:1;fill:#ffffff;stroke-width:0.264583"
       d="m 132.5,42.5 10,-10 c 0,0 27.5,26.029068 27.5,67.5 0,41.47093 -27.5,67.5 -27.5,67.5 l -10,-10 c 0,0 25,-22.5 25,-57.5 0,-35 -25,-57.5 -25,-57.5 z"
       id="path377"
       sodipodi:nodetypes="cczcczc" /><path
       style="display:none;opacity:1;fill:#ffffff;stroke-width:0.264583"
       d="m 155,20 10,-10 c 0,0 35,22.5 35,87.5 0,65 -35,92.5 -35,92.5 l -10,-10 c 0,0 32.5,-27.5 32.5,-80 C 187.5,47.5 155,20 155,20 Z"
       id="path379"
       sodipodi:nodetypes="cczcczc" /></g></svg>
